<mxfile host="Electron" modified="2023-12-13T04:26:29.064Z" agent="Mozilla/5.0 (Windows NT 10.0; Win64; x64) AppleWebKit/537.36 (KHTML, like Gecko) draw.io/22.1.2 Chrome/114.0.5735.289 Electron/25.9.4 Safari/537.36" etag="vk2sr9jGREX5J9h4D3EL" version="22.1.2" type="device">
  <diagram name="Page-1" id="2YBvvXClWsGukQMizWep">
    <mxGraphModel dx="789" dy="924" grid="1" gridSize="10" guides="1" tooltips="1" connect="1" arrows="1" fold="1" page="1" pageScale="1" pageWidth="850" pageHeight="1100" math="0" shadow="0">
      <root>
        <mxCell id="0" />
        <mxCell id="1" parent="0" />
        <mxCell id="aM9ryv3xv72pqoxQDRHE-1" value=":Login page" style="shape=umlLifeline;perimeter=lifelinePerimeter;whiteSpace=wrap;html=1;container=0;dropTarget=0;collapsible=0;recursiveResize=0;outlineConnect=0;portConstraint=eastwest;newEdgeStyle={&quot;edgeStyle&quot;:&quot;elbowEdgeStyle&quot;,&quot;elbow&quot;:&quot;vertical&quot;,&quot;curved&quot;:0,&quot;rounded&quot;:0};" parent="1" vertex="1">
          <mxGeometry x="358.07" y="60" width="100" height="540" as="geometry" />
        </mxCell>
        <mxCell id="aM9ryv3xv72pqoxQDRHE-2" value="" style="html=1;points=[];perimeter=orthogonalPerimeter;outlineConnect=0;targetShapes=umlLifeline;portConstraint=eastwest;newEdgeStyle={&quot;edgeStyle&quot;:&quot;elbowEdgeStyle&quot;,&quot;elbow&quot;:&quot;vertical&quot;,&quot;curved&quot;:0,&quot;rounded&quot;:0};" parent="aM9ryv3xv72pqoxQDRHE-1" vertex="1">
          <mxGeometry x="45" y="60" width="10" height="30" as="geometry" />
        </mxCell>
        <mxCell id="1ztCujCBdUlmkWiKOD6x-5" value="" style="html=1;points=[[0,0,0,0,5],[0,1,0,0,-5],[1,0,0,0,5],[1,1,0,0,-5]];perimeter=orthogonalPerimeter;outlineConnect=0;targetShapes=umlLifeline;portConstraint=eastwest;newEdgeStyle={&quot;curved&quot;:0,&quot;rounded&quot;:0};" vertex="1" parent="aM9ryv3xv72pqoxQDRHE-1">
          <mxGeometry x="45" y="110" width="10" height="30" as="geometry" />
        </mxCell>
        <mxCell id="1ztCujCBdUlmkWiKOD6x-9" value="" style="html=1;points=[[0,0,0,0,5],[0,1,0,0,-5],[1,0,0,0,5],[1,1,0,0,-5]];perimeter=orthogonalPerimeter;outlineConnect=0;targetShapes=umlLifeline;portConstraint=eastwest;newEdgeStyle={&quot;curved&quot;:0,&quot;rounded&quot;:0};" vertex="1" parent="aM9ryv3xv72pqoxQDRHE-1">
          <mxGeometry x="45" y="160" width="10" height="30" as="geometry" />
        </mxCell>
        <mxCell id="aM9ryv3xv72pqoxQDRHE-5" value="Database" style="shape=umlLifeline;perimeter=lifelinePerimeter;whiteSpace=wrap;html=1;container=0;dropTarget=0;collapsible=0;recursiveResize=0;outlineConnect=0;portConstraint=eastwest;newEdgeStyle={&quot;edgeStyle&quot;:&quot;elbowEdgeStyle&quot;,&quot;elbow&quot;:&quot;vertical&quot;,&quot;curved&quot;:0,&quot;rounded&quot;:0};" parent="1" vertex="1">
          <mxGeometry x="632.07" y="60" width="100" height="540" as="geometry" />
        </mxCell>
        <mxCell id="aM9ryv3xv72pqoxQDRHE-6" value="" style="html=1;points=[];perimeter=orthogonalPerimeter;outlineConnect=0;targetShapes=umlLifeline;portConstraint=eastwest;newEdgeStyle={&quot;edgeStyle&quot;:&quot;elbowEdgeStyle&quot;,&quot;elbow&quot;:&quot;vertical&quot;,&quot;curved&quot;:0,&quot;rounded&quot;:0};" parent="aM9ryv3xv72pqoxQDRHE-5" vertex="1">
          <mxGeometry x="45" y="160" width="10" height="270" as="geometry" />
        </mxCell>
        <mxCell id="k5Xjpb8x-PNmJcn1PBJ5-22" value="Xác thực tài khoản" style="html=1;align=left;spacingLeft=2;endArrow=block;rounded=0;edgeStyle=orthogonalEdgeStyle;curved=0;rounded=0;" parent="aM9ryv3xv72pqoxQDRHE-5" source="aM9ryv3xv72pqoxQDRHE-6" target="aM9ryv3xv72pqoxQDRHE-6" edge="1">
          <mxGeometry relative="1" as="geometry">
            <mxPoint x="60.92999999999995" y="201.5" as="sourcePoint" />
            <Array as="points">
              <mxPoint x="99" y="202" />
              <mxPoint x="99" y="238" />
            </Array>
            <mxPoint x="55.00142857142839" y="238.50000000000023" as="targetPoint" />
          </mxGeometry>
        </mxCell>
        <mxCell id="1ztCujCBdUlmkWiKOD6x-1" value="Nhập email" style="html=1;verticalAlign=bottom;endArrow=block;curved=0;rounded=0;" edge="1" parent="1" source="k5Xjpb8x-PNmJcn1PBJ5-11" target="aM9ryv3xv72pqoxQDRHE-2">
          <mxGeometry width="80" relative="1" as="geometry">
            <mxPoint x="222.07" y="250" as="sourcePoint" />
            <mxPoint x="452.07" y="290" as="targetPoint" />
          </mxGeometry>
        </mxCell>
        <mxCell id="1ztCujCBdUlmkWiKOD6x-6" value="Nhập password" style="html=1;verticalAlign=bottom;endArrow=block;curved=0;rounded=0;" edge="1" parent="1" source="1ztCujCBdUlmkWiKOD6x-3" target="aM9ryv3xv72pqoxQDRHE-1">
          <mxGeometry width="80" relative="1" as="geometry">
            <mxPoint x="132.07" y="145" as="sourcePoint" />
            <mxPoint x="413.07" y="145" as="targetPoint" />
          </mxGeometry>
        </mxCell>
        <mxCell id="1ztCujCBdUlmkWiKOD6x-10" value="Nhấn vào nút đăng nhập" style="html=1;verticalAlign=bottom;endArrow=block;curved=0;rounded=0;entryX=0;entryY=0;entryDx=0;entryDy=5;entryPerimeter=0;" edge="1" parent="1" source="1ztCujCBdUlmkWiKOD6x-39">
          <mxGeometry width="80" relative="1" as="geometry">
            <mxPoint x="152.07" y="250" as="sourcePoint" />
            <mxPoint x="403.07" y="234.58000000000004" as="targetPoint" />
          </mxGeometry>
        </mxCell>
        <mxCell id="1ztCujCBdUlmkWiKOD6x-11" value="Gửi thông tin đăng nhập người dùng" style="html=1;verticalAlign=bottom;endArrow=block;curved=0;rounded=0;exitX=1;exitY=1;exitDx=0;exitDy=-5;exitPerimeter=0;" edge="1" parent="1" source="1ztCujCBdUlmkWiKOD6x-9" target="aM9ryv3xv72pqoxQDRHE-5">
          <mxGeometry width="80" relative="1" as="geometry">
            <mxPoint x="522.07" y="280" as="sourcePoint" />
            <mxPoint x="602.07" y="280" as="targetPoint" />
          </mxGeometry>
        </mxCell>
        <mxCell id="1ztCujCBdUlmkWiKOD6x-13" value="alt" style="shape=umlFrame;whiteSpace=wrap;html=1;pointerEvents=0;width=40;height=20;" vertex="1" parent="1">
          <mxGeometry x="32.07" y="360" width="690" height="200" as="geometry" />
        </mxCell>
        <mxCell id="1ztCujCBdUlmkWiKOD6x-14" value="" style="endArrow=none;dashed=1;html=1;rounded=0;entryX=1;entryY=0.502;entryDx=0;entryDy=0;entryPerimeter=0;exitX=-0.003;exitY=0.51;exitDx=0;exitDy=0;exitPerimeter=0;" edge="1" parent="1" source="1ztCujCBdUlmkWiKOD6x-13" target="1ztCujCBdUlmkWiKOD6x-13">
          <mxGeometry width="50" height="50" relative="1" as="geometry">
            <mxPoint x="402.07" y="470" as="sourcePoint" />
            <mxPoint x="452.07" y="420" as="targetPoint" />
          </mxGeometry>
        </mxCell>
        <mxCell id="1ztCujCBdUlmkWiKOD6x-15" value="" style="html=1;points=[[0,0,0,0,5],[0,1,0,0,-5],[1,0,0,0,5],[1,1,0,0,-5]];perimeter=orthogonalPerimeter;outlineConnect=0;targetShapes=umlLifeline;portConstraint=eastwest;newEdgeStyle={&quot;curved&quot;:0,&quot;rounded&quot;:0};" vertex="1" parent="1">
          <mxGeometry x="403.07" y="370" width="10" height="80" as="geometry" />
        </mxCell>
        <mxCell id="1ztCujCBdUlmkWiKOD6x-16" value="Thông tin đăng nhập được chấp nhận" style="html=1;verticalAlign=bottom;endArrow=open;dashed=1;endSize=8;curved=0;rounded=0;" edge="1" parent="1">
          <mxGeometry relative="1" as="geometry">
            <mxPoint x="677.07" y="390" as="sourcePoint" />
            <mxPoint x="413.07" y="390" as="targetPoint" />
          </mxGeometry>
        </mxCell>
        <mxCell id="1ztCujCBdUlmkWiKOD6x-21" value="Chuyển hướng tới trang chủ tương ứng" style="html=1;align=left;spacingLeft=2;endArrow=block;rounded=0;edgeStyle=orthogonalEdgeStyle;curved=0;rounded=0;" edge="1" parent="1" source="1ztCujCBdUlmkWiKOD6x-15" target="1ztCujCBdUlmkWiKOD6x-15">
          <mxGeometry relative="1" as="geometry">
            <mxPoint x="432.07" y="414" as="sourcePoint" />
            <Array as="points">
              <mxPoint x="452.07" y="414" />
              <mxPoint x="452.07" y="440" />
            </Array>
            <mxPoint x="432.07" y="450" as="targetPoint" />
          </mxGeometry>
        </mxCell>
        <mxCell id="1ztCujCBdUlmkWiKOD6x-22" value="[Tài khoản hợp lệ]" style="text;html=1;align=center;verticalAlign=middle;resizable=0;points=[];autosize=1;strokeColor=none;fillColor=none;" vertex="1" parent="1">
          <mxGeometry x="52.06999999999999" y="390" width="120" height="30" as="geometry" />
        </mxCell>
        <mxCell id="1ztCujCBdUlmkWiKOD6x-24" value="[Tài khoản không hợp lệ]" style="text;html=1;align=center;verticalAlign=middle;resizable=0;points=[];autosize=1;strokeColor=none;fillColor=none;" vertex="1" parent="1">
          <mxGeometry x="42.06999999999999" y="460" width="160" height="30" as="geometry" />
        </mxCell>
        <mxCell id="1ztCujCBdUlmkWiKOD6x-25" value="" style="html=1;points=[[0,0,0,0,5],[0,1,0,0,-5],[1,0,0,0,5],[1,1,0,0,-5]];perimeter=orthogonalPerimeter;outlineConnect=0;targetShapes=umlLifeline;portConstraint=eastwest;newEdgeStyle={&quot;curved&quot;:0,&quot;rounded&quot;:0};" vertex="1" parent="1">
          <mxGeometry x="403.07" y="470" width="10" height="40" as="geometry" />
        </mxCell>
        <mxCell id="1ztCujCBdUlmkWiKOD6x-26" value="Thông tin đăng nhập không được chấp nhận" style="html=1;verticalAlign=bottom;endArrow=open;dashed=1;endSize=8;curved=0;rounded=0;" edge="1" parent="1">
          <mxGeometry relative="1" as="geometry">
            <mxPoint x="677.07" y="480" as="sourcePoint" />
            <mxPoint x="413.0700000000001" y="480.0000000000001" as="targetPoint" />
          </mxGeometry>
        </mxCell>
        <mxCell id="1ztCujCBdUlmkWiKOD6x-38" value="" style="shape=umlLifeline;perimeter=lifelinePerimeter;whiteSpace=wrap;html=1;container=1;dropTarget=0;collapsible=0;recursiveResize=0;outlineConnect=0;portConstraint=eastwest;newEdgeStyle={&quot;curved&quot;:0,&quot;rounded&quot;:0};participant=umlActor;" vertex="1" parent="1">
          <mxGeometry x="92.07" y="30" width="20" height="570" as="geometry" />
        </mxCell>
        <mxCell id="k5Xjpb8x-PNmJcn1PBJ5-11" value="" style="html=1;points=[[0,0,0,0,5],[0,1,0,0,-5],[1,0,0,0,5],[1,1,0,0,-5]];perimeter=orthogonalPerimeter;outlineConnect=0;targetShapes=umlLifeline;portConstraint=eastwest;newEdgeStyle={&quot;curved&quot;:0,&quot;rounded&quot;:0};" parent="1ztCujCBdUlmkWiKOD6x-38" vertex="1">
          <mxGeometry x="5" y="90" width="10" height="30" as="geometry" />
        </mxCell>
        <mxCell id="1ztCujCBdUlmkWiKOD6x-3" value="" style="html=1;points=[[0,0,0,0,5],[0,1,0,0,-5],[1,0,0,0,5],[1,1,0,0,-5]];perimeter=orthogonalPerimeter;outlineConnect=0;targetShapes=umlLifeline;portConstraint=eastwest;newEdgeStyle={&quot;curved&quot;:0,&quot;rounded&quot;:0};" vertex="1" parent="1ztCujCBdUlmkWiKOD6x-38">
          <mxGeometry x="5" y="140" width="10" height="30" as="geometry" />
        </mxCell>
        <mxCell id="1ztCujCBdUlmkWiKOD6x-39" value="" style="html=1;points=[[0,0,0,0,5],[0,1,0,0,-5],[1,0,0,0,5],[1,1,0,0,-5]];perimeter=orthogonalPerimeter;outlineConnect=0;targetShapes=umlLifeline;portConstraint=eastwest;newEdgeStyle={&quot;curved&quot;:0,&quot;rounded&quot;:0};" vertex="1" parent="1ztCujCBdUlmkWiKOD6x-38">
          <mxGeometry x="5" y="190" width="10" height="30" as="geometry" />
        </mxCell>
        <mxCell id="1ztCujCBdUlmkWiKOD6x-37" value="" style="html=1;points=[[0,0,0,0,5],[0,1,0,0,-5],[1,0,0,0,5],[1,1,0,0,-5]];perimeter=orthogonalPerimeter;outlineConnect=0;targetShapes=umlLifeline;portConstraint=eastwest;newEdgeStyle={&quot;curved&quot;:0,&quot;rounded&quot;:0};" vertex="1" parent="1ztCujCBdUlmkWiKOD6x-38">
          <mxGeometry x="5" y="460" width="10" height="40" as="geometry" />
        </mxCell>
        <mxCell id="1ztCujCBdUlmkWiKOD6x-40" value="Xóa dữ liệu trong form đăng nhập" style="html=1;verticalAlign=bottom;endArrow=open;dashed=1;endSize=8;curved=0;rounded=0;" edge="1" parent="1" target="1ztCujCBdUlmkWiKOD6x-37">
          <mxGeometry x="0.0005" relative="1" as="geometry">
            <mxPoint x="403.07" y="502" as="sourcePoint" />
            <mxPoint x="97.07" y="502" as="targetPoint" />
            <mxPoint as="offset" />
          </mxGeometry>
        </mxCell>
        <mxCell id="1ztCujCBdUlmkWiKOD6x-42" value="Người dùng" style="text;html=1;strokeColor=none;fillColor=none;align=center;verticalAlign=middle;whiteSpace=wrap;rounded=0;" vertex="1" parent="1">
          <mxGeometry x="120" y="40" width="60" height="30" as="geometry" />
        </mxCell>
        <mxCell id="1ztCujCBdUlmkWiKOD6x-70" value=":Signup page" style="shape=umlLifeline;perimeter=lifelinePerimeter;whiteSpace=wrap;html=1;container=0;dropTarget=0;collapsible=0;recursiveResize=0;outlineConnect=0;portConstraint=eastwest;newEdgeStyle={&quot;edgeStyle&quot;:&quot;elbowEdgeStyle&quot;,&quot;elbow&quot;:&quot;vertical&quot;,&quot;curved&quot;:0,&quot;rounded&quot;:0};" vertex="1" parent="1">
          <mxGeometry x="360.14" y="670" width="100" height="540" as="geometry" />
        </mxCell>
        <mxCell id="1ztCujCBdUlmkWiKOD6x-71" value="" style="html=1;points=[];perimeter=orthogonalPerimeter;outlineConnect=0;targetShapes=umlLifeline;portConstraint=eastwest;newEdgeStyle={&quot;edgeStyle&quot;:&quot;elbowEdgeStyle&quot;,&quot;elbow&quot;:&quot;vertical&quot;,&quot;curved&quot;:0,&quot;rounded&quot;:0};" vertex="1" parent="1ztCujCBdUlmkWiKOD6x-70">
          <mxGeometry x="45" y="60" width="10" height="30" as="geometry" />
        </mxCell>
        <mxCell id="1ztCujCBdUlmkWiKOD6x-72" value="" style="html=1;points=[[0,0,0,0,5],[0,1,0,0,-5],[1,0,0,0,5],[1,1,0,0,-5]];perimeter=orthogonalPerimeter;outlineConnect=0;targetShapes=umlLifeline;portConstraint=eastwest;newEdgeStyle={&quot;curved&quot;:0,&quot;rounded&quot;:0};" vertex="1" parent="1ztCujCBdUlmkWiKOD6x-70">
          <mxGeometry x="45" y="100" width="10" height="30" as="geometry" />
        </mxCell>
        <mxCell id="1ztCujCBdUlmkWiKOD6x-99" value="" style="html=1;points=[[0,0,0,0,5],[0,1,0,0,-5],[1,0,0,0,5],[1,1,0,0,-5]];perimeter=orthogonalPerimeter;outlineConnect=0;targetShapes=umlLifeline;portConstraint=eastwest;newEdgeStyle={&quot;curved&quot;:0,&quot;rounded&quot;:0};" vertex="1" parent="1ztCujCBdUlmkWiKOD6x-70">
          <mxGeometry x="45" y="140" width="10" height="30" as="geometry" />
        </mxCell>
        <mxCell id="1ztCujCBdUlmkWiKOD6x-73" value="" style="html=1;points=[[0,0,0,0,5],[0,1,0,0,-5],[1,0,0,0,5],[1,1,0,0,-5]];perimeter=orthogonalPerimeter;outlineConnect=0;targetShapes=umlLifeline;portConstraint=eastwest;newEdgeStyle={&quot;curved&quot;:0,&quot;rounded&quot;:0};" vertex="1" parent="1ztCujCBdUlmkWiKOD6x-70">
          <mxGeometry x="45" y="180" width="10" height="30" as="geometry" />
        </mxCell>
        <mxCell id="1ztCujCBdUlmkWiKOD6x-74" value="Database" style="shape=umlLifeline;perimeter=lifelinePerimeter;whiteSpace=wrap;html=1;container=0;dropTarget=0;collapsible=0;recursiveResize=0;outlineConnect=0;portConstraint=eastwest;newEdgeStyle={&quot;edgeStyle&quot;:&quot;elbowEdgeStyle&quot;,&quot;elbow&quot;:&quot;vertical&quot;,&quot;curved&quot;:0,&quot;rounded&quot;:0};" vertex="1" parent="1">
          <mxGeometry x="634.14" y="670" width="100" height="540" as="geometry" />
        </mxCell>
        <mxCell id="1ztCujCBdUlmkWiKOD6x-75" value="" style="html=1;points=[];perimeter=orthogonalPerimeter;outlineConnect=0;targetShapes=umlLifeline;portConstraint=eastwest;newEdgeStyle={&quot;edgeStyle&quot;:&quot;elbowEdgeStyle&quot;,&quot;elbow&quot;:&quot;vertical&quot;,&quot;curved&quot;:0,&quot;rounded&quot;:0};" vertex="1" parent="1ztCujCBdUlmkWiKOD6x-74">
          <mxGeometry x="45" y="160" width="10" height="270" as="geometry" />
        </mxCell>
        <mxCell id="1ztCujCBdUlmkWiKOD6x-76" value="Thêm tài khoản" style="html=1;align=left;spacingLeft=2;endArrow=block;rounded=0;edgeStyle=orthogonalEdgeStyle;curved=0;rounded=0;" edge="1" parent="1ztCujCBdUlmkWiKOD6x-74">
          <mxGeometry relative="1" as="geometry">
            <mxPoint x="55" y="230" as="sourcePoint" />
            <Array as="points">
              <mxPoint x="99" y="230" />
              <mxPoint x="99" y="266" />
            </Array>
            <mxPoint x="55" y="266" as="targetPoint" />
          </mxGeometry>
        </mxCell>
        <mxCell id="1ztCujCBdUlmkWiKOD6x-77" value="Nhập email" style="html=1;verticalAlign=bottom;endArrow=block;curved=0;rounded=0;" edge="1" parent="1" source="1ztCujCBdUlmkWiKOD6x-91" target="1ztCujCBdUlmkWiKOD6x-71">
          <mxGeometry width="80" relative="1" as="geometry">
            <mxPoint x="224.14" y="860" as="sourcePoint" />
            <mxPoint x="454.14" y="900" as="targetPoint" />
          </mxGeometry>
        </mxCell>
        <mxCell id="1ztCujCBdUlmkWiKOD6x-78" value="Nhập password" style="html=1;verticalAlign=bottom;endArrow=block;curved=0;rounded=0;" edge="1" parent="1" source="1ztCujCBdUlmkWiKOD6x-92" target="1ztCujCBdUlmkWiKOD6x-72">
          <mxGeometry width="80" relative="1" as="geometry">
            <mxPoint x="134.14" y="755" as="sourcePoint" />
            <mxPoint x="415.14" y="755" as="targetPoint" />
          </mxGeometry>
        </mxCell>
        <mxCell id="1ztCujCBdUlmkWiKOD6x-79" value="Nhấn vào nút đăng ký" style="html=1;verticalAlign=bottom;endArrow=block;curved=0;rounded=0;" edge="1" parent="1" source="1ztCujCBdUlmkWiKOD6x-93" target="1ztCujCBdUlmkWiKOD6x-73">
          <mxGeometry width="80" relative="1" as="geometry">
            <mxPoint x="154.14" y="860" as="sourcePoint" />
            <mxPoint x="405.14" y="844.58" as="targetPoint" />
          </mxGeometry>
        </mxCell>
        <mxCell id="1ztCujCBdUlmkWiKOD6x-80" value="Gửi thông tin đăng ký người dùng" style="html=1;verticalAlign=bottom;endArrow=block;curved=0;rounded=0;exitX=1;exitY=1;exitDx=0;exitDy=-5;exitPerimeter=0;" edge="1" parent="1" source="1ztCujCBdUlmkWiKOD6x-73" target="1ztCujCBdUlmkWiKOD6x-75">
          <mxGeometry x="0.0013" width="80" relative="1" as="geometry">
            <mxPoint x="524.14" y="890" as="sourcePoint" />
            <mxPoint x="604.14" y="890" as="targetPoint" />
            <mxPoint as="offset" />
          </mxGeometry>
        </mxCell>
        <mxCell id="1ztCujCBdUlmkWiKOD6x-81" value="alt" style="shape=umlFrame;whiteSpace=wrap;html=1;pointerEvents=0;width=40;height=20;" vertex="1" parent="1">
          <mxGeometry x="34.14" y="970" width="690" height="200" as="geometry" />
        </mxCell>
        <mxCell id="1ztCujCBdUlmkWiKOD6x-82" value="" style="endArrow=none;dashed=1;html=1;rounded=0;entryX=1;entryY=0.502;entryDx=0;entryDy=0;entryPerimeter=0;exitX=-0.003;exitY=0.51;exitDx=0;exitDy=0;exitPerimeter=0;" edge="1" parent="1" source="1ztCujCBdUlmkWiKOD6x-81" target="1ztCujCBdUlmkWiKOD6x-81">
          <mxGeometry width="50" height="50" relative="1" as="geometry">
            <mxPoint x="404.14" y="1080" as="sourcePoint" />
            <mxPoint x="454.14" y="1030" as="targetPoint" />
          </mxGeometry>
        </mxCell>
        <mxCell id="1ztCujCBdUlmkWiKOD6x-83" value="" style="html=1;points=[[0,0,0,0,5],[0,1,0,0,-5],[1,0,0,0,5],[1,1,0,0,-5]];perimeter=orthogonalPerimeter;outlineConnect=0;targetShapes=umlLifeline;portConstraint=eastwest;newEdgeStyle={&quot;curved&quot;:0,&quot;rounded&quot;:0};" vertex="1" parent="1">
          <mxGeometry x="405.14" y="980" width="10" height="80" as="geometry" />
        </mxCell>
        <mxCell id="1ztCujCBdUlmkWiKOD6x-84" value="Thông tin đăng ký được chấp nhận" style="html=1;verticalAlign=bottom;endArrow=open;dashed=1;endSize=8;curved=0;rounded=0;" edge="1" parent="1">
          <mxGeometry relative="1" as="geometry">
            <mxPoint x="679.14" y="1000" as="sourcePoint" />
            <mxPoint x="415.14" y="1000" as="targetPoint" />
          </mxGeometry>
        </mxCell>
        <mxCell id="1ztCujCBdUlmkWiKOD6x-85" value="Chuyển hướng tới đăng nhập" style="html=1;align=left;spacingLeft=2;endArrow=block;rounded=0;edgeStyle=orthogonalEdgeStyle;curved=0;rounded=0;" edge="1" parent="1" source="1ztCujCBdUlmkWiKOD6x-83" target="1ztCujCBdUlmkWiKOD6x-83">
          <mxGeometry relative="1" as="geometry">
            <mxPoint x="434.14" y="1024" as="sourcePoint" />
            <Array as="points">
              <mxPoint x="454.14" y="1024" />
              <mxPoint x="454.14" y="1050" />
            </Array>
            <mxPoint x="434.14" y="1060" as="targetPoint" />
          </mxGeometry>
        </mxCell>
        <mxCell id="1ztCujCBdUlmkWiKOD6x-86" value="[Tài khoản hợp lệ]" style="text;html=1;align=center;verticalAlign=middle;resizable=0;points=[];autosize=1;strokeColor=none;fillColor=none;" vertex="1" parent="1">
          <mxGeometry x="54.14" y="1000" width="120" height="30" as="geometry" />
        </mxCell>
        <mxCell id="1ztCujCBdUlmkWiKOD6x-87" value="[Tài khoản không hợp lệ]" style="text;html=1;align=center;verticalAlign=middle;resizable=0;points=[];autosize=1;strokeColor=none;fillColor=none;" vertex="1" parent="1">
          <mxGeometry x="44.14" y="1070" width="160" height="30" as="geometry" />
        </mxCell>
        <mxCell id="1ztCujCBdUlmkWiKOD6x-88" value="" style="html=1;points=[[0,0,0,0,5],[0,1,0,0,-5],[1,0,0,0,5],[1,1,0,0,-5]];perimeter=orthogonalPerimeter;outlineConnect=0;targetShapes=umlLifeline;portConstraint=eastwest;newEdgeStyle={&quot;curved&quot;:0,&quot;rounded&quot;:0};" vertex="1" parent="1">
          <mxGeometry x="405.14" y="1080" width="10" height="40" as="geometry" />
        </mxCell>
        <mxCell id="1ztCujCBdUlmkWiKOD6x-89" value="Thông tin đăng ký không được chấp nhận" style="html=1;verticalAlign=bottom;endArrow=open;dashed=1;endSize=8;curved=0;rounded=0;" edge="1" parent="1">
          <mxGeometry relative="1" as="geometry">
            <mxPoint x="679.14" y="1090" as="sourcePoint" />
            <mxPoint x="415.1400000000001" y="1090" as="targetPoint" />
          </mxGeometry>
        </mxCell>
        <mxCell id="1ztCujCBdUlmkWiKOD6x-90" value="" style="shape=umlLifeline;perimeter=lifelinePerimeter;whiteSpace=wrap;html=1;container=1;dropTarget=0;collapsible=0;recursiveResize=0;outlineConnect=0;portConstraint=eastwest;newEdgeStyle={&quot;curved&quot;:0,&quot;rounded&quot;:0};participant=umlActor;" vertex="1" parent="1">
          <mxGeometry x="94.14" y="640" width="20" height="570" as="geometry" />
        </mxCell>
        <mxCell id="1ztCujCBdUlmkWiKOD6x-91" value="" style="html=1;points=[[0,0,0,0,5],[0,1,0,0,-5],[1,0,0,0,5],[1,1,0,0,-5]];perimeter=orthogonalPerimeter;outlineConnect=0;targetShapes=umlLifeline;portConstraint=eastwest;newEdgeStyle={&quot;curved&quot;:0,&quot;rounded&quot;:0};" vertex="1" parent="1ztCujCBdUlmkWiKOD6x-90">
          <mxGeometry x="5" y="90" width="10" height="30" as="geometry" />
        </mxCell>
        <mxCell id="1ztCujCBdUlmkWiKOD6x-92" value="" style="html=1;points=[[0,0,0,0,5],[0,1,0,0,-5],[1,0,0,0,5],[1,1,0,0,-5]];perimeter=orthogonalPerimeter;outlineConnect=0;targetShapes=umlLifeline;portConstraint=eastwest;newEdgeStyle={&quot;curved&quot;:0,&quot;rounded&quot;:0};" vertex="1" parent="1ztCujCBdUlmkWiKOD6x-90">
          <mxGeometry x="5" y="130" width="10" height="30" as="geometry" />
        </mxCell>
        <mxCell id="1ztCujCBdUlmkWiKOD6x-93" value="" style="html=1;points=[[0,0,0,0,5],[0,1,0,0,-5],[1,0,0,0,5],[1,1,0,0,-5]];perimeter=orthogonalPerimeter;outlineConnect=0;targetShapes=umlLifeline;portConstraint=eastwest;newEdgeStyle={&quot;curved&quot;:0,&quot;rounded&quot;:0};" vertex="1" parent="1ztCujCBdUlmkWiKOD6x-90">
          <mxGeometry x="5" y="210" width="10" height="30" as="geometry" />
        </mxCell>
        <mxCell id="1ztCujCBdUlmkWiKOD6x-94" value="" style="html=1;points=[[0,0,0,0,5],[0,1,0,0,-5],[1,0,0,0,5],[1,1,0,0,-5]];perimeter=orthogonalPerimeter;outlineConnect=0;targetShapes=umlLifeline;portConstraint=eastwest;newEdgeStyle={&quot;curved&quot;:0,&quot;rounded&quot;:0};" vertex="1" parent="1ztCujCBdUlmkWiKOD6x-90">
          <mxGeometry x="5" y="460" width="10" height="40" as="geometry" />
        </mxCell>
        <mxCell id="1ztCujCBdUlmkWiKOD6x-98" value="" style="html=1;points=[[0,0,0,0,5],[0,1,0,0,-5],[1,0,0,0,5],[1,1,0,0,-5]];perimeter=orthogonalPerimeter;outlineConnect=0;targetShapes=umlLifeline;portConstraint=eastwest;newEdgeStyle={&quot;curved&quot;:0,&quot;rounded&quot;:0};" vertex="1" parent="1ztCujCBdUlmkWiKOD6x-90">
          <mxGeometry x="5" y="170" width="10" height="30" as="geometry" />
        </mxCell>
        <mxCell id="1ztCujCBdUlmkWiKOD6x-95" value="Xóa dữ liệu trong form đăng ký" style="html=1;verticalAlign=bottom;endArrow=open;dashed=1;endSize=8;curved=0;rounded=0;" edge="1" parent="1" target="1ztCujCBdUlmkWiKOD6x-94">
          <mxGeometry x="0.0005" relative="1" as="geometry">
            <mxPoint x="405.14" y="1112" as="sourcePoint" />
            <mxPoint x="99.14" y="1112" as="targetPoint" />
            <mxPoint as="offset" />
          </mxGeometry>
        </mxCell>
        <mxCell id="1ztCujCBdUlmkWiKOD6x-96" value="Người dùng" style="text;html=1;strokeColor=none;fillColor=none;align=center;verticalAlign=middle;whiteSpace=wrap;rounded=0;" vertex="1" parent="1">
          <mxGeometry x="122.07000000000001" y="650" width="60" height="30" as="geometry" />
        </mxCell>
        <mxCell id="1ztCujCBdUlmkWiKOD6x-100" value="Nhập username" style="html=1;verticalAlign=bottom;endArrow=block;curved=0;rounded=0;" edge="1" parent="1" source="1ztCujCBdUlmkWiKOD6x-98" target="1ztCujCBdUlmkWiKOD6x-99">
          <mxGeometry x="0.0028" width="80" relative="1" as="geometry">
            <mxPoint x="150" y="820" as="sourcePoint" />
            <mxPoint x="405.14" y="837.0000000000002" as="targetPoint" />
            <mxPoint as="offset" />
          </mxGeometry>
        </mxCell>
      </root>
    </mxGraphModel>
  </diagram>
</mxfile>
